<?xml version="1.0" encoding="UTF-8"?>
<svg version="1.1" xmlns="http://www.w3.org/2000/svg" width="193" height="194">
<path d="M0 0 C0.80179688 0.00451172 1.60359375 0.00902344 2.4296875 0.01367188 C4.41149006 0.02546832 6.39325433 0.04340395 8.375 0.0625 C7.14928812 8.90052774 5.5160118 17.61198305 3.69628906 26.34472656 C3.52581055 27.17198242 3.35533203 27.99923828 3.1796875 28.8515625 C3.02483887 29.59100098 2.86999023 30.33043945 2.71044922 31.09228516 C2.29107759 33.2223121 2.29107759 33.2223121 2.375 36.0625 C7.92542765 29.61514013 13.39166123 23.13234612 18.5625 16.375 C18.98273438 15.84148926 19.40296875 15.30797852 19.8359375 14.75830078 C21.79320749 12.25419164 23.52132152 9.80080313 25.07421875 7.0234375 C26.98935953 3.85385719 28.23936701 2.07445714 31.375 0.0625 C37.96004443 -1.13109178 44.74947502 -0.55272732 51.375 0.0625 C50.48473923 4.59239239 47.88600778 7.46295724 45 10.9375 C43.90301999 12.28204171 42.80668025 13.62710603 41.7109375 14.97265625 C41.15374023 15.65344238 40.59654297 16.33422852 40.02246094 17.03564453 C37.05193851 20.69024992 34.15395952 24.40191808 31.26928711 28.12451172 C29.186974 30.80215428 27.08002519 33.39838041 24.83984375 35.94921875 C24.08832031 36.81160156 23.33679688 37.67398438 22.5625 38.5625 C21.89605469 39.2946875 21.22960937 40.026875 20.54296875 40.78125 C19.09829189 43.03484117 19.09829189 43.03484117 19.84375 45.66796875 C22.00806497 50.46590168 24.30975062 55.17949757 26.6875 59.875 C27.3980957 61.29522461 27.3980957 61.29522461 28.12304688 62.74414062 C30.76169836 67.98895679 33.49733363 73.13671879 36.48120117 78.1940918 C37.375 80.0625 37.375 80.0625 37.375 83.0625 C30.775 83.0625 24.175 83.0625 17.375 83.0625 C16.32699219 80.95488281 15.27898437 78.84726563 14.19921875 76.67578125 C13.1770012 74.62353584 12.15408587 72.57163966 11.13110352 70.51977539 C10.42334236 69.09924038 9.71630129 67.67834636 9.01000977 66.25708008 C7.99166285 64.20818618 6.97068922 62.16061935 5.94921875 60.11328125 C5.63659592 59.4828743 5.32397308 58.85246735 5.00187683 58.20295715 C3.26452751 54.72782122 1.42213511 51.36477284 -0.625 48.0625 C-3.03394058 57.46761908 -5.30590039 66.88517806 -7.31738281 76.38427734 C-8.5188984 81.9563984 -8.5188984 81.9563984 -9.625 83.0625 C-12.3023138 83.16231214 -14.94804175 83.20129875 -17.625 83.1875 C-18.75035156 83.19330078 -18.75035156 83.19330078 -19.8984375 83.19921875 C-25.49838947 83.18911053 -25.49838947 83.18911053 -26.625 82.0625 C-26.54798705 72.75413536 -24.73841853 63.74986715 -22.75390625 54.6953125 C-22.46798703 53.36317196 -22.18275862 52.03088298 -21.8981781 50.69845581 C-21.30567687 47.93259532 -20.7077598 45.16798857 -20.10522461 42.40429688 C-19.33672598 38.87916483 -18.57782035 35.35205804 -17.82241917 31.82409859 C-17.0944821 28.42630503 -16.36190197 25.02951772 -15.62890625 21.6328125 C-15.22255699 19.74672775 -15.22255699 19.74672775 -14.80799866 17.82254028 C-12.0631651 5.22752203 -12.0631651 5.22752203 -10.625 1.0625 C-7.31505287 -0.59247356 -3.63377 -0.03834335 0 0 Z " fill="#F7F7F7" transform="translate(109.625,54.9375)"/>
<path d="M0 0 C6.94172388 -0.02529373 13.88343594 -0.04284304 20.82519531 -0.05493164 C23.18815556 -0.05996959 25.55111268 -0.06680008 27.9140625 -0.07543945 C31.30469535 -0.08752854 34.69528709 -0.09323359 38.0859375 -0.09765625 C39.14743011 -0.10281754 40.20892273 -0.10797882 41.30258179 -0.11329651 C42.77388046 -0.11340981 42.77388046 -0.11340981 44.27490234 -0.11352539 C45.14094086 -0.115746 46.00697937 -0.11796661 46.89926147 -0.12025452 C49 0 49 0 51 1 C50.88465396 2.56324232 50.75724874 4.12559683 50.625 5.6875 C50.55539063 6.55761719 50.48578125 7.42773438 50.4140625 8.32421875 C49.98000233 11.12923023 49.08977781 13.39026892 48 16 C47.0713916 16.02505615 46.1427832 16.0501123 45.18603516 16.07592773 C41.74564196 16.17097932 38.30542287 16.27021707 34.86523438 16.37231445 C33.37537359 16.41566589 31.88546305 16.45734084 30.39550781 16.49731445 C28.25570673 16.55501215 26.11615615 16.61870755 23.9765625 16.68359375 C22.04417725 16.73858032 22.04417725 16.73858032 20.07275391 16.79467773 C17.0872318 16.79530675 17.0872318 16.79530675 15 18 C14.33369373 20.51259104 13.78717426 22.95125642 13.3125 25.5 C13.09883789 26.55380859 13.09883789 26.55380859 12.88085938 27.62890625 C12.53594605 29.41010043 12.26215561 31.20475841 12 33 C13.76544049 34.76544049 16.3183906 34.21348536 18.71484375 34.28125 C19.87564453 34.31863281 21.03644531 34.35601562 22.23242188 34.39453125 C23.45509766 34.42933594 24.67777344 34.46414062 25.9375 34.5 C28.34257263 34.56868002 30.74753464 34.64139064 33.15234375 34.71875 C34.22476318 34.74904297 35.29718262 34.77933594 36.40209961 34.81054688 C39 35 39 35 41 36 C40.69230293 37.81332154 40.37870936 39.62564345 40.0625 41.4375 C39.88847656 42.44683594 39.71445313 43.45617187 39.53515625 44.49609375 C39 47 39 47 38 48 C35.78312006 48.15873955 33.56144702 48.25133837 31.33984375 48.31640625 C30.67537735 48.33718735 30.01091095 48.35796844 29.3263092 48.37937927 C27.19681457 48.44493658 25.06719332 48.50378785 22.9375 48.5625 C21.49673153 48.60567939 20.05597601 48.64929349 18.61523438 48.69335938 C15.0769596 48.80062393 11.53854131 48.90187371 8 49 C7.68575214 50.68717539 7.37369845 52.37475949 7.0625 54.0625 C6.80146484 55.47208984 6.80146484 55.47208984 6.53515625 56.91015625 C5.95458085 60.26223755 5.48111364 63.6322045 5 67 C15.23 67.33 25.46 67.66 36 68 C36.91584672 71.66338686 37.07117717 73.09691568 36.375 76.625 C36.23835938 77.40101563 36.10171875 78.17703125 35.9609375 78.9765625 C35 81 35 81 33.08349609 82.11206055 C28.61451989 83.39897001 24.33061665 83.26527274 19.703125 83.23046875 C18.71374939 83.23001053 17.72437378 83.22955231 16.70501709 83.2290802 C14.62055253 83.22606595 12.53609005 83.21820445 10.45166016 83.20581055 C7.24764104 83.18748651 4.04390993 83.18530143 0.83984375 83.18554688 C-1.18489835 83.18063401 -3.20963849 83.1748067 -5.234375 83.16796875 C-6.19784851 83.16685593 -7.16132202 83.1657431 -8.1539917 83.16459656 C-9.48107147 83.15502678 -9.48107147 83.15502678 -10.83496094 83.14526367 C-12.00813873 83.13954597 -12.00813873 83.13954597 -13.20501709 83.13371277 C-15 83 -15 83 -16 82 C-16.19882657 77.32018957 -15.78806715 73.08457394 -14.85424805 68.50488281 C-14.478368 66.63694061 -14.478368 66.63694061 -14.09489441 64.73126221 C-13.81741982 63.38849799 -13.53968809 62.04578689 -13.26171875 60.703125 C-12.97695061 59.30468583 -12.69268311 57.90614464 -12.40888977 56.50750732 C-11.81370069 53.58159237 -11.21393311 50.65666725 -10.6105957 47.73242188 C-9.84367688 44.01453722 -9.08591554 40.29486323 -8.33136272 36.57445145 C-7.74485229 33.68593911 -7.15452814 30.79821658 -6.56299782 27.91072845 C-6.28267649 26.54120739 -6.00323095 25.17150672 -5.72473717 23.80161285 C-4.0905258 15.78014921 -2.27795713 7.86452587 0 0 Z " fill="#F9F9F9" transform="translate(40,55)"/>
<path d="M0 0 C7.26 0 14.52 0 22 0 C22 0.33 22 0.66 22 1 C14.74 1 7.48 1 0 1 C0 0.67 0 0.34 0 0 Z " fill="#000000" transform="translate(100,179)"/>
<path d="M0 0 C3.63 0 7.26 0 11 0 C11 0.33 11 0.66 11 1 C7.37 1 3.74 1 0 1 C0 0.67 0 0.34 0 0 Z " fill="#000000" transform="translate(153,179)"/>
<path d="" fill="#000000" transform="translate(0,0)"/>
</svg>
